<?xml version="1.0" standalone="no"?>
<!DOCTYPE svg PUBLIC "-//W3C//DTD SVG 20010904//EN"
 "http://www.w3.org/TR/2001/REC-SVG-20010904/DTD/svg10.dtd">
<svg version="1.0" xmlns="http://www.w3.org/2000/svg"
 width="736.000000pt" height="736.000000pt" viewBox="0 0 736.000000 736.000000"
 preserveAspectRatio="xMidYMid meet">

<g transform="translate(0.000000,736.000000) scale(0.100000,-0.100000)"
fill="#ffffff" stroke="none">
<path d="M3689 6576 c-2 -2 -28 -7 -58 -10 -70 -8 -187 -56 -243 -98 -25 -19
-58 -40 -74 -47 -23 -10 -84 -75 -175 -189 -25 -30 -89 -163 -109 -222 -48
-149 -61 -239 -62 -425 -2 -160 16 -303 49 -404 8 -25 21 -79 28 -120 21 -106
138 -339 278 -553 97 -149 102 -156 142 -208 33 -44 34 -45 15 -65 -78 -83
-103 -111 -160 -179 -53 -63 -237 -230 -287 -260 -8 -4 -59 23 -127 68 -224
148 -325 200 -440 230 -30 8 -64 20 -76 26 -29 16 -311 105 -390 124 -93 21
-322 39 -410 32 -84 -8 -237 -32 -290 -45 -139 -37 -237 -72 -298 -107 -26
-15 -59 -33 -73 -41 -15 -7 -51 -41 -81 -76 -137 -157 -206 -403 -149 -532 37
-83 136 -221 213 -296 135 -131 328 -216 553 -245 248 -31 512 6 839 117 115
39 362 162 441 218 33 24 105 72 159 107 l100 65 65 -64 c36 -35 89 -83 116
-107 28 -25 68 -65 89 -90 22 -25 82 -91 135 -148 53 -56 100 -110 104 -118 7
-12 -1 -31 -28 -68 -20 -28 -66 -96 -102 -151 -37 -55 -86 -129 -109 -165 -24
-36 -66 -113 -94 -172 -27 -59 -54 -109 -59 -112 -13 -9 -67 -142 -118 -291
-69 -201 -90 -405 -59 -572 8 -43 22 -117 30 -165 9 -49 26 -113 37 -143 21
-56 154 -252 212 -313 33 -34 135 -99 202 -127 52 -21 213 -29 280 -14 148 35
358 205 431 349 71 139 101 237 149 485 22 111 14 388 -14 495 -25 97 -103
351 -131 425 -42 112 -90 225 -116 271 -15 27 -35 64 -45 83 -10 18 -43 67
-74 107 l-57 73 20 28 c38 53 288 289 395 372 121 94 102 92 184 18 30 -28 77
-62 287 -208 106 -73 280 -169 351 -192 28 -9 79 -26 115 -38 36 -12 79 -29
95 -37 17 -8 44 -16 60 -17 17 -2 62 -6 100 -11 39 -5 153 -8 255 -8 209 0
283 14 423 79 94 43 127 66 238 158 96 80 142 147 196 282 26 65 32 94 33 156
0 93 -25 155 -106 269 -65 91 -99 124 -184 181 -87 59 -94 62 -250 114 -231
76 -277 85 -465 92 -207 6 -364 -11 -487 -56 -316 -113 -429 -163 -572 -253
-61 -39 -123 -78 -138 -87 l-26 -15 -124 116 c-125 118 -238 236 -343 361
l-57 68 42 82 c24 45 54 96 66 113 13 17 24 35 24 41 0 5 12 25 26 44 25 32
143 265 211 414 30 68 111 299 132 382 29 110 53 519 36 600 -23 103 -68 268
-84 303 -27 60 -196 223 -266 254 -88 41 -192 66 -271 66 -39 0 -73 -2 -75 -4z
m109 -212 c119 -34 217 -122 263 -234 39 -96 45 -124 64 -312 18 -173 13 -227
-41 -423 -25 -89 -30 -106 -58 -195 -49 -153 -128 -331 -185 -413 -26 -38 -78
-126 -155 -260 -22 -38 -30 -46 -41 -37 -13 11 -121 172 -192 285 -59 94 -146
317 -178 458 -23 104 -46 295 -50 418 -4 143 17 250 77 394 53 126 73 155 144
216 64 54 125 86 199 105 68 17 88 17 153 -2z m-89 -2321 c10 -10 34 -38 53
-63 61 -79 376 -382 404 -388 22 -5 16 -15 -26 -45 -21 -15 -127 -114 -236
-220 -108 -106 -199 -193 -203 -194 -3 -1 -37 37 -76 84 -38 47 -138 155 -222
241 l-152 156 62 65 c34 36 128 133 210 214 81 82 147 153 147 158 0 15 19 10
39 -8z m-1844 -20 c107 -21 318 -95 545 -189 72 -30 154 -74 220 -119 58 -40
122 -80 143 -90 20 -9 37 -20 37 -24 0 -12 -273 -188 -385 -249 -149 -80 -251
-117 -535 -191 -169 -45 -309 -36 -520 33 -250 81 -363 158 -435 296 -29 55
-27 201 3 258 74 139 287 257 527 291 80 11 312 2 400 -16z m3810 -90 c109
-15 218 -42 285 -69 118 -50 225 -111 292 -168 70 -60 76 -69 98 -135 42 -131
14 -258 -73 -339 -70 -64 -211 -138 -302 -158 -16 -4 -34 -10 -40 -14 -5 -4
-45 -16 -88 -25 -124 -27 -210 -17 -482 59 -186 51 -245 82 -545 282 -220 147
-266 181 -258 189 9 9 169 115 174 115 3 0 37 22 77 48 190 127 324 175 597
215 123 17 135 17 265 0z m-1964 -1315 c55 -71 124 -210 217 -443 25 -63 76
-249 92 -336 6 -36 12 -148 13 -250 2 -169 -1 -195 -27 -314 -16 -71 -37 -146
-48 -165 -68 -125 -120 -185 -193 -225 -109 -60 -172 -73 -259 -53 -25 6 -150
132 -190 193 -47 69 -62 110 -103 265 -30 117 -36 155 -40 290 l-5 155 62 185
c34 102 75 214 91 250 48 106 120 243 146 275 13 17 57 74 99 128 41 53 81 97
89 97 8 0 33 -23 56 -52z"/>
</g>
</svg>
